<svg width="24" height="24" viewBox="0 0 24 24" fill="none" xmlns="http://www.w3.org/2000/svg">
<path fill-rule="evenodd" clip-rule="evenodd" d="M12 2C6.48 2 2 6.48 2 12C2 17.52 6.48 22 12 22C17.52 22 22 17.52 22 12C22 6.48 17.52 2 12 2ZM12 4C16.411 4 20 7.589 20 12C20 16.411 16.411 20 12 20C7.589 20 4 16.411 4 12C4 7.589 7.589 4 12 4ZM13 7V9H11V7H13ZM11 16C11 16.55 11.45 17 12 17C12.55 17 13 16.55 13 16V12C13 11.45 12.55 11 12 11C11.45 11 11 11.45 11 12V16Z" fill="white" fill-opacity="0.96"/>
</svg>
